{"title":"The.Speed.of.Thought.2011.BRRip.x264.AC3.RoSub-Psycho","uid":6746310,"size":1476186783,"categoryP":"video","categoryS":"movies","magnet":"?xt=urn:btih:d115d14660390b139e13d0aa1e39ee7df8385dec&amp;dn=The.Speed.of.Thought.2011.BRRip.x264.AC3.RoSub-Psycho&amp;tr=udp%3A%2F%2Ftracker.openbittorrent.com%3A80&amp;tr=udp%3A%2F%2Fopen.demonii.com%3A1337&amp;tr=udp%3A%2F%2Ftracker.coppersurfer.tk%3A6969&amp;tr=udp%3A%2F%2Fexodus.desync.com%3A6969","seeders":0,"leechers":0,"uploader":"Francisco1206","files":-1,"time":1318702607,"description":"Joshua Lazarus has a special gift -- but will this gift destroy him before he can escape to freedom with his newly found soul mate?\n\n \nCAST:\n\nTaryn Manning.............Kira\nWallace Shawn.............Sandy\nNick Stahl................Joshua Lazarus\nBlair Brown...............Bridger\nMÃƒÂ­a Maestro...............Anna Manheim\nErik Palladino............Butler\nAlan Cox..................Alexei\nJoshua Oppenheimer........Tarmac NSA Agent (as Josh Oppenheimer)\nEvan Oppenheimer..........Boris (as Evan Lee Oppenheimer)\nMarina Artigas............Slinky Woman\nStefania Tortorella.......Emily / Vanessa\nJulio DePietro............Tarma NSA Agent\nJorge Sabate..............Diaz\nTerrence Gray.............NSA Agent with earpiece\nZina......................Willing Woman \n\n\nSAMPLE INCLUDED: 30S/7.49mb\n\nSOURCE: The.Speed.of.Thought.2011.BluRay.1080p.DTS.x264-FZHD\n\n\nGeneral\n*******\nFormat                                   : Matroska\nFormat version                           : Version 2\nFile size                                : 1.37 GiB\nDuration                                 : 1h 33mn\nOverall bit rate                         : 2 089 Kbps\nWriting application                      : HandBrake 0.9.5\nWriting library                          : libmkv 0.6.4.1\n\nVideo\n*****\nID                                       : 1\nFormat                                   : AVC\nFormat/Info                              : Advanced Video Codec\nFormat profile                           : &lt;a class=&quot;__cf_email__&quot; href=&quot;/cdn-cgi/l/email-protection&quot; data-cfemail=&quot;87cae6eee9c7cbb4a9b7&quot;&gt;[email&amp;#160;protected]&lt;/a&gt;&lt;script cf-hash='f9e31' type=&quot;text/javascript&quot;&gt;\n/* &lt;![CDATA[ */!function(){try{var t=&quot;currentScript&quot;in document?document.currentScript:function(){for(var t=document.getElementsByTagName(&quot;script&quot;),e=t.length;e--;)if(t[e].getAttribute(&quot;cf-hash&quot;))return t[e]}();if(t&amp;&amp;t.previousSibling){var e,r,n,i,c=t.previousSibling,a=c.getAttribute(&quot;data-cfemail&quot;);if(a){for(e=&quot;&quot;,r=parseInt(a.substr(0,2),16),n=2;a.length-n;n+=2)i=parseInt(a.substr(n,2),16)^r,e+=String.fromCharCode(i);e=document.createTextNode(e),c.parentNode.replaceChild(e,c)}}}catch(u){}}();/* ]]&gt; */&lt;/script&gt;\nFormat settings, CABAC                   : Yes\nFormat settings, ReFrames                : 4 frames\nCodec ID                                 : V_MPEG4/ISO/AVC\nDuration                                 : 1h 33mn\nBit rate                                 : 1 637 Kbps\nWidth                                    : 720 pixels\nHeight                                   : 400 pixels\nDisplay aspect ratio                     : 16:9\nFrame rate mode                          : Variable\nFrame rate                               : 23.976 fps\nColor space                              : YUV\nChroma subsampling                       : 4:2:0\nBit depth                                : 8 bits\nScan type                                : Progressive\nBits/(Pixel*Frame)                       : 0.237\nStream size                              : 1.05 GiB (77%)\nWriting library                          : x264 core 112\n\n\nAudio\n*****\nID                                       : 2\nFormat                                   : AC-3\nFormat/Info                              : Audio Coding 3\nMode extension                           : CM (complete main)\nCodec ID                                 : A_AC3\nDuration                                 : 1h 33mn\nBit rate mode                            : Constant\nBit rate                                 : 448 Kbps\nChannel(s)                               : 6 channels\nChannel positions                        : Front: L C R, Side: L R, LFE\nSampling rate                            : 48.0 KHz\nBit depth                                : 16 bits\nCompression mode                         : Lossy\nDelay relative to video                  : -1mn 5s\nStream size                              : 300 MiB (21%)\nLanguage                                 : English\n\nText(subtitles)\n***************\nID                                       : 3\nFormat                                   : UTF-8\nCodec ID                                 : S_TEXT/UTF8\nCodec ID/Info                            : UTF-8 Plain Text\nLanguage                                 : Dutch\nLanguage                                 : English\nLanguage                                 : Romanian\n\n\n\n\nPLEASE SEED FOR AS LONG AS POSSIBLE!","torrent":{"xt":"urn:btih:d115d14660390b139e13d0aa1e39ee7df8385dec","amp;dn":"The.Speed.of.Thought.2011.BRRip.x264.AC3.RoSub-Psycho","amp;tr":["udp%3A%2F%2Ftracker.openbittorrent.com%3A80","udp%3A%2F%2Fopen.demonii.com%3A1337","udp%3A%2F%2Ftracker.coppersurfer.tk%3A6969","udp%3A%2F%2Fexodus.desync.com%3A6969"],"infoHash":"d115d14660390b139e13d0aa1e39ee7df8385dec","infoHashBuffer":{"type":"Buffer","data":[209,21,209,70,96,57,11,19,158,19,208,170,30,57,238,125,248,56,93,236]},"announce":[],"urlList":[]}}